<svg xmlns="http://www.w3.org/2000/svg" width="300" height="450" viewBox="0 0 300 450">
  <rect width="300" height="450" fill="#1f2937"/>
  <g fill="#4b5563" transform="translate(110, 185)">
    <path d="M4 16l4.586-4.586a2 2 0 012.828 0L16 16m-2-2l1.586-1.586a2 2 0 012.828 0L20 14m-6-6h.01M6 20h12a2 2 0 002-2V6a2 2 0 00-2-2H6a2 2 0 00-2 2v12a2 2 0 002 2z" stroke="currentColor" stroke-width="1.5" stroke-linecap="round" stroke-linejoin="round" fill="none" transform="scale(3.5)"/>
  </g>
  <text x="150" y="320" font-family="system-ui, sans-serif" font-size="14" fill="#6b7280" text-anchor="middle">No Poster</text>
</svg>
